# xmcd CD database file
#
# Track frame offsets:
#	150
#	29597
#	62195
#	78107
#	95977
#	123985
#	143455
#
# Disc length: 2377 seconds
#
# Revision: 0
# Processed by: cddbd v1.5.2PL0 Copyright (c) Steve Scherf et al.
# Submitted via: CDex 1.51
#
DISCID=5a094707
DTITLE=Johnny "Hammonds" Smith - Johnny "Hammond" Cooks with Gator Tail
DYEAR=1900
DGENRE=Jazz
TTITLE0=Good 'Nuff
TTITLE1=Nobody Knows The Trouble I've Seen
TTITLE2=Sonja's Dreamland
TTITLE3=Besame Mucho
TTITLE4=Neckbones
TTITLE5=Delicious
TTITLE6=Y' All
EXTD=
EXTT0=
EXTT1=
EXTT2=
EXTT3=
EXTT4=
EXTT5=
EXTT6=
PLAYORDER=
